<svg width="19" height="19" viewBox="0 0 19 19" version="1.1" xmlns="http://www.w3.org/2000/svg" xmlns:xlink="http://www.w3.org/1999/xlink">
<title>email</title>
<desc>Created using Figma</desc>
<g id="Canvas" transform="translate(-128 -6832)">
<g id="email">
<g id="Group">
<g id="Group">
<g id="Vector">
<use xlink:href="#path0_fill" transform="translate(128 6832)" fill="#FFFFFF"/>
</g>
</g>
</g>
</g>
</g>
<defs>
<path id="path0_fill" d="M 16.2162 2.78381C 14.4213 0.988934 12.0385 0 9.5 0C 6.96148 0 4.57869 0.988934 2.78381 2.78381C 0.988934 4.57869 0 6.96148 0 9.5C 0 12.0385 0.988934 14.4213 2.78381 16.2162C 4.57869 18.0111 6.96148 19 9.5 19C 11.0457 19 12.5758 18.6223 13.9346 17.902C 14.2773 17.7229 14.4057 17.2986 14.2266 16.9559C 14.0475 16.6133 13.6232 16.4848 13.2805 16.6639C 12.1242 17.2752 10.8199 17.5984 9.5 17.5984C 5.03422 17.5984 1.40164 13.9658 1.40164 9.5C 1.40164 5.03422 5.03422 1.40164 9.5 1.40164C 13.9658 1.40164 17.5984 5.03422 17.5984 9.5C 17.5984 11.0029 17.1779 11.8594 16.8236 12.3111C 16.4459 12.7977 15.9398 13.0742 15.4336 13.0742C 14.7289 13.0742 14.0164 12.5135 14.0164 11.2598L 14.0164 5.80512C 14.0164 5.41967 13.701 5.1043 13.3156 5.1043C 12.9301 5.1043 12.6148 5.41967 12.6148 5.80512L 12.6148 6.1127C 11.7426 5.23668 10.5395 4.69549 9.20799 4.69549C 6.55656 4.6916 4.39959 6.84857 4.39959 9.5C 4.39959 12.1514 6.55656 14.3084 9.20799 14.3084C 9.6791 14.3084 10.1424 14.2422 10.5863 14.1059C 10.9561 13.9969 11.1664 13.6037 11.0574 13.2338C 10.9484 12.8639 10.5551 12.6537 10.1852 12.7627C 9.86988 12.8561 9.53893 12.9068 9.20799 12.9068C 7.33135 12.9068 5.80123 11.3805 5.80123 9.5C 5.80123 7.62336 7.32746 6.09324 9.20799 6.09324C 11.0885 6.09324 12.6148 7.61947 12.6148 9.5L 12.6148 11.2598C 12.6148 13.3701 14.032 14.4758 15.4336 14.4758C 16.3719 14.4758 17.283 14.0008 17.9293 13.1715C 18.6301 12.2721 19 11.0029 19 9.5C 19 6.96148 18.0111 4.57869 16.2162 2.78381Z"/>
</defs>
</svg>
