<svg width="20" height="19" viewBox="0 0 20 19" version="1.1" xmlns="http://www.w3.org/2000/svg" xmlns:xlink="http://www.w3.org/1999/xlink">
<title>message</title>
<desc>Created using Figma</desc>
<g id="Canvas" transform="translate(-128 -6959)">
<g id="message">
<clipPath id="clip-0" clip-rule="evenodd">
<path d="M 128 6959L 148 6959L 148 6978L 128 6978L 128 6959Z" fill="#FFFFFF"/>
</clipPath>
<g id="Group" clip-path="url(#clip-0)">
<g id="speech-bubble-with-text-lines">
<g id="Group">
<g id="Group">
<g id="Vector">
<use xlink:href="#path0_fill" transform="translate(128 6959)" fill="#FFFFFF"/>
</g>
<g id="Vector">
<use xlink:href="#path1_fill" transform="translate(132.137 6963.92)" fill="#FFFFFF"/>
</g>
<g id="Vector">
<use xlink:href="#path2_fill" transform="translate(132.137 6967.81)" fill="#FFFFFF"/>
</g>
</g>
</g>
</g>
</g>
</g>
</g>
<defs>
<path id="path0_fill" d="M 16.4935 1.05956e-09L 3.50647 1.05956e-09C 1.57297 1.05956e-09 0 1.55756 0 3.47203L 0 11.4037C 0 13.3182 1.57297 14.8757 3.50647 14.8757L 11.7785 14.8757L 15.7384 18.7966C 15.8726 18.9295 16.0519 19 16.2344 19C 16.3248 19 16.4159 18.9827 16.5026 18.9471C 16.7647 18.8396 16.9356 18.5865 16.9356 18.3056L 16.9356 14.8482C 18.6613 14.6324 20 13.17 20 11.4037L 20 3.47203C 20 1.55756 18.427 1.05956e-09 16.4935 1.05956e-09ZM 18.5974 11.4038C 18.5974 12.5525 17.6536 13.4869 16.4935 13.4869L 16.2343 13.4869C 15.847 13.4869 15.533 13.7979 15.533 14.1813L 15.533 16.6292L 12.5649 13.6903C 12.4334 13.56 12.2551 13.4869 12.069 13.4869L 3.50647 13.4869C 2.34636 13.4869 1.40259 12.5525 1.40259 11.4038L 1.40259 3.47209C 1.40259 2.32339 2.34636 1.3889 3.50647 1.3889L 16.4935 1.3889C 17.6536 1.3889 18.5974 2.32339 18.5974 3.47209L 18.5974 11.4038Z"/>
<path id="path1_fill" d="M 11.0243 -2.10217e-07L 0.701294 -2.10217e-07C 0.314011 -2.10217e-07 -1.81487e-07 0.310867 -1.81487e-07 0.694396C -1.81487e-07 1.07787 0.314011 1.38879 0.701294 1.38879L 11.0243 1.38879C 11.4116 1.38879 11.7256 1.07787 11.7256 0.694396C 11.7256 0.310867 11.4117 -2.10217e-07 11.0243 -2.10217e-07Z"/>
<path id="path2_fill" d="M 11.0243 -2.10217e-07L 0.701294 -2.10217e-07C 0.314011 -2.10217e-07 -1.81487e-07 0.310867 -1.81487e-07 0.694396C -1.81487e-07 1.07792 0.314011 1.38879 0.701294 1.38879L 11.0243 1.38879C 11.4116 1.38879 11.7256 1.07787 11.7256 0.694396C 11.7256 0.310922 11.4117 -2.10217e-07 11.0243 -2.10217e-07Z"/>
</defs>
</svg>
