<svg width="19" height="21" viewBox="0 0 19 21" version="1.1" xmlns="http://www.w3.org/2000/svg" xmlns:xlink="http://www.w3.org/1999/xlink">
<title>name</title>
<desc>Created using Figma</desc>
<g id="Canvas" transform="translate(-128 -6762)">
<g id="name">
<g id="Group">
<g id="Group">
<g id="Vector">
<use xlink:href="#path0_fill" transform="translate(132.672 6762)" fill="#FFFFFF"/>
</g>
<g id="Vector">
<use xlink:href="#path1_fill" transform="translate(128 6773.27)" fill="#FFFFFF"/>
</g>
</g>
</g>
</g>
</g>
<defs>
<path id="path0_fill" d="M 4.74674 11.3154C 4.76987 11.3154 4.793 11.3154 4.82075 11.3154C 4.83 11.3154 4.83925 11.3154 4.84851 11.3154C 4.86238 11.3154 4.88089 11.3154 4.89476 11.3154C 6.25007 11.2936 7.34634 10.8457 8.15583 9.98902C 9.93669 8.10168 9.64065 4.86623 9.60827 4.55747C 9.49263 2.23959 8.32698 1.13067 7.36485 0.61317C 6.64787 0.226134 5.81064 0.0173949 4.87626 0L 4.84388 0C 4.83925 0 4.83 0 4.82538 0L 4.79762 0C 4.28418 0 3.27579 0.0782771 2.30904 0.595776C 1.33766 1.11327 0.153495 2.2222 0.0378545 4.55747C 0.00547517 4.86623 -0.290564 8.10168 1.4903 9.98902C 2.29516 10.8457 3.39143 11.2936 4.74674 11.3154ZM 1.2729 4.66618C 1.2729 4.65314 1.27752 4.64009 1.27752 4.63139C 1.43017 1.51336 3.78461 1.1785 4.793 1.1785L 4.8115 1.1785C 4.82075 1.1785 4.83463 1.1785 4.84851 1.1785C 6.09742 1.2046 8.22059 1.68296 8.36398 4.63139C 8.36398 4.64444 8.36398 4.65749 8.36861 4.66618C 8.37323 4.69662 8.69703 7.65376 7.22608 9.2106C 6.64325 9.82812 5.86614 10.1325 4.84388 10.1412C 4.83463 10.1412 4.83 10.1412 4.82075 10.1412C 4.8115 10.1412 4.80688 10.1412 4.79762 10.1412C 3.77999 10.1325 2.99826 9.82812 2.42005 9.2106C 0.953728 7.66246 1.26827 4.69228 1.2729 4.66618Z"/>
<path id="path1_fill" d="M 18.9987 5.4079C 18.9987 5.40355 18.9987 5.3992 18.9987 5.39485C 18.9987 5.36006 18.9941 5.32527 18.9941 5.28613C 18.9663 4.42508 18.9062 2.41162 16.8987 1.76801C 16.8848 1.76366 16.8663 1.75932 16.8524 1.75497C 14.7663 1.25486 13.0316 0.124194 13.0131 0.111148C 12.731 -0.0758474 12.3424 -0.0106156 12.1435 0.254657C 11.9446 0.519929 12.014 0.885221 12.2962 1.07222C 12.3748 1.1244 14.2158 2.329 16.5194 2.88564C 17.5971 3.24658 17.7174 4.32941 17.7498 5.32092C 17.7498 5.36006 17.7498 5.39485 17.7544 5.42964C 17.759 5.82103 17.7313 6.4255 17.6573 6.7734C 16.9079 7.17348 13.9706 8.55638 9.50229 8.55638C 5.05244 8.55638 2.09667 7.16913 1.34269 6.76905C 1.26868 6.42115 1.2363 5.81668 1.24555 5.42529C 1.24555 5.3905 1.25018 5.35571 1.25018 5.31657C 1.28256 4.32506 1.40282 3.24223 2.48059 2.88129C 4.78416 2.32465 6.62516 1.1157 6.70379 1.06787C 6.98595 0.880872 7.05534 0.51558 6.85644 0.250308C 6.65753 -0.0149646 6.26898 -0.080195 5.98682 0.1068C 5.96832 0.119846 4.24296 1.25051 2.14755 1.75062C 2.12905 1.75497 2.11517 1.75932 2.10129 1.76366C 0.0937713 2.41162 0.0336384 4.42509 0.0058846 5.28179C 0.0058846 5.32092 0.00588449 5.35571 0.00125887 5.3905C 0.00125887 5.39485 0.00125887 5.3992 0.00125887 5.40355C -0.00336676 5.62968 -0.00799229 6.79079 0.237166 7.37352C 0.283422 7.48659 0.366683 7.58226 0.477698 7.64749C 0.616467 7.73447 3.94229 9.72618 9.50692 9.72618C 15.0715 9.72618 18.3974 7.73012 18.5361 7.64749C 18.6425 7.58226 18.7304 7.48659 18.7767 7.37352C 19.008 6.79514 19.0033 5.63403 18.9987 5.4079Z"/>
</defs>
</svg>
