<svg width="30" height="17" viewBox="0 0 30 17" version="1.1" xmlns="http://www.w3.org/2000/svg" xmlns:xlink="http://www.w3.org/1999/xlink">
<title>team-vk</title>
<desc>Created using Figma</desc>
<g id="Canvas" transform="translate(-41 -5558)">
<g id="team-vk">
<g id="Group">
<g id="Vector">
<use xlink:href="#path0_fill" transform="translate(41 5558)" fill="#FA5D7C"/>
</g>
</g>
</g>
</g>
<defs>
<path id="path0_fill" d="M 29.8409 15.3529C 29.8046 15.2751 29.7707 15.2106 29.7392 15.1589C 29.2188 14.2279 28.2241 13.0851 26.7559 11.7302L 26.7249 11.6991L 26.7093 11.6839L 26.6936 11.6683L 26.6779 11.6683C 26.0115 11.0374 25.5895 10.6132 25.4128 10.396C 25.0895 9.98232 25.0171 9.56354 25.1938 9.13923C 25.3186 8.81864 25.7876 8.1416 26.5996 7.10719C 27.0267 6.55898 27.3649 6.11962 27.6147 5.7886C 29.4164 3.40973 30.1974 1.8896 29.9578 1.22761L 29.8648 1.07292C 29.8022 0.979782 29.6408 0.894582 29.3808 0.81688C 29.1202 0.739341 28.787 0.726518 28.3808 0.778193L 23.8825 0.809056C 23.8096 0.783409 23.7055 0.785799 23.57 0.81688C 23.4346 0.847961 23.3668 0.863556 23.3668 0.863556L 23.2885 0.902407L 23.2264 0.949082C 23.1743 0.979945 23.117 1.03423 23.0545 1.11182C 22.9923 1.18914 22.9403 1.27988 22.8987 1.38329C 22.4089 2.63472 21.8521 3.79824 21.2272 4.87378C 20.8419 5.51512 20.488 6.07093 20.1648 6.54154C 19.8421 7.01199 19.5714 7.35861 19.3529 7.58079C 19.134 7.80319 18.9365 7.98136 18.7592 8.11595C 18.5821 8.2506 18.4469 8.30749 18.3533 8.28668C 18.2595 8.26587 18.1711 8.24522 18.0875 8.22457C 17.9418 8.13144 17.8246 8.00478 17.7362 7.84449C 17.6475 7.68419 17.5877 7.48244 17.5565 7.23939C 17.5254 6.99618 17.507 6.78698 17.5018 6.61109C 17.4969 6.43542 17.4992 6.18694 17.5097 5.86635C 17.5206 5.5456 17.5254 5.32858 17.5254 5.2148C 17.5254 4.82173 17.5331 4.39513 17.5486 3.93489C 17.5644 3.47466 17.5771 3.11 17.5878 2.84136C 17.5984 2.57245 17.6033 2.28794 17.6033 1.988C 17.6033 1.68806 17.585 1.45284 17.5486 1.28211C 17.5127 1.1116 17.4576 0.946093 17.385 0.785637C 17.312 0.625343 17.2051 0.501346 17.0648 0.41332C 16.9243 0.325403 16.7495 0.255635 16.5416 0.203797C 15.9896 0.0797461 15.2868 0.0126401 14.4327 0.00220745C 12.496 -0.0184406 11.2515 0.105773 10.6996 0.374687C 10.481 0.488305 10.2831 0.643545 10.1062 0.839919C 9.91868 1.06754 9.89253 1.19175 10.0279 1.21218C 10.6528 1.30515 11.0951 1.52755 11.3555 1.87917L 11.4493 2.06549C 11.5223 2.19992 11.5952 2.43791 11.6681 2.77915C 11.7409 3.12038 11.7879 3.49786 11.8086 3.91137C 11.8606 4.66648 11.8606 5.31288 11.8086 5.85059C 11.7565 6.38853 11.7072 6.8073 11.6602 7.10724C 11.6132 7.40718 11.543 7.65023 11.4493 7.83634C 11.3555 8.02249 11.2931 8.13628 11.2618 8.17757C 11.2305 8.21887 11.2045 8.24489 11.1838 8.25511C 11.0485 8.30662 10.9077 8.33287 10.762 8.33287C 10.6161 8.33287 10.4392 8.26038 10.231 8.11552C 10.0228 7.97066 9.80675 7.77167 9.58282 7.51825C 9.3589 7.26477 9.10637 6.91054 8.82511 6.45553C 8.54407 6.00051 8.25247 5.46274 7.95048 4.84221L 7.70063 4.39219C 7.54443 4.10269 7.33107 3.68114 7.06032 3.12794C 6.7894 2.57452 6.54994 2.03919 6.34177 1.52206C 6.25856 1.30488 6.13355 1.13953 5.96696 1.02575L 5.88879 0.979076C 5.83681 0.93778 5.75338 0.89393 5.63893 0.8472C 5.52432 0.800525 5.40472 0.767053 5.27966 0.746459L 0.999856 0.777323C 0.562514 0.777323 0.265775 0.875727 0.109527 1.07226L 0.0469947 1.16523C 0.0157561 1.21702 0 1.29972 0 1.41355C 0 1.52733 0.0312386 1.66698 0.0937707 1.83233C 0.718544 3.29073 1.39797 4.69724 2.13205 6.05208C 2.86613 7.40691 3.50404 8.49827 4.04538 9.32517C 4.58683 10.1527 5.13873 10.9336 5.70108 11.6677C 6.26343 12.4021 6.63567 12.8727 6.81779 13.0795C 7.00014 13.2866 7.14337 13.4415 7.24748 13.5449L 7.63804 13.9171C 7.88795 14.1654 8.25494 14.4627 8.73916 14.8091C 9.2235 15.1557 9.7597 15.497 10.348 15.8334C 10.9365 16.1692 11.6211 16.4433 12.4021 16.6553C 13.1831 16.8675 13.9432 16.9526 14.6826 16.9115L 16.4789 16.9115C 16.8432 16.8803 17.1192 16.7665 17.3068 16.5701L 17.369 16.4924C 17.4108 16.4306 17.4499 16.3347 17.486 16.2057C 17.5225 16.0764 17.5407 15.934 17.5407 15.7791C 17.53 15.3344 17.5641 14.9337 17.642 14.5769C 17.7199 14.2203 17.8086 13.9514 17.9078 13.7702C 18.007 13.5893 18.119 13.4366 18.2435 13.3128C 18.3684 13.1888 18.4573 13.1136 18.5095 13.0878C 18.5614 13.0618 18.6028 13.0441 18.634 13.0335C 18.884 12.9508 19.1781 13.0309 19.5168 13.2742C 19.8553 13.5172 20.1728 13.8173 20.4697 14.174C 20.7665 14.531 21.1231 14.9315 21.5396 15.3761C 21.9563 15.8209 22.3206 16.1516 22.6329 16.3691L 22.9452 16.5552C 23.1537 16.6794 23.4245 16.7932 23.7578 16.8966C 24.0905 17 24.382 17.0258 24.6322 16.9742L 28.6307 16.9122C 29.0262 16.9122 29.334 16.8472 29.5523 16.7181C 29.771 16.5889 29.9009 16.4464 29.9428 16.2915C 29.9846 16.1365 29.9869 15.9605 29.9508 15.7638C 29.9137 15.5676 29.8772 15.4304 29.8409 15.3529Z"/>
</defs>
</svg>
