<svg width="24" height="21" viewBox="0 0 24 21" version="1.1" xmlns="http://www.w3.org/2000/svg" xmlns:xlink="http://www.w3.org/1999/xlink">
<title>team-tg</title>
<desc>Created using Figma</desc>
<g id="Canvas" transform="translate(-103 -5556)">
<g id="team-tg">
<g id="XMLID 496">
<g id="XMLID 497">
<use xlink:href="#path0_fill" transform="translate(103 5556)" fill="#FA5D7C"/>
</g>
</g>
</g>
</g>
<defs>
<path id="path0_fill" d="M 0.423911 10.0694L 5.954 12.1437L 8.09448 19.0617C 8.23144 19.5048 8.77056 19.6686 9.1284 19.3745L 12.211 16.8491C 12.5341 16.5845 12.9943 16.5713 13.332 16.8176L 18.8919 20.8743C 19.2747 21.1539 19.817 20.9431 19.913 20.4783L 23.9859 0.789467C 24.0907 0.281672 23.5942 -0.141946 23.1131 0.0450603L 0.417431 8.84391C -0.142649 9.06099 -0.137769 9.8579 0.423911 10.0694ZM 7.74952 11.0395L 18.5574 4.34982C 18.7516 4.22995 18.9515 4.49389 18.7847 4.64938L 9.86504 12.9818C 9.55152 13.2751 9.34928 13.6676 9.292 14.0937L 8.98816 16.3566C 8.94792 16.6587 8.5256 16.6887 8.44264 16.3963L 7.27408 12.2698C 7.14024 11.7992 7.33528 11.2965 7.74952 11.0395Z"/>
</defs>
</svg>
