<svg width="214" height="198" viewBox="0 0 214 198" version="1.1" xmlns="http://www.w3.org/2000/svg" xmlns:xlink="http://www.w3.org/1999/xlink">
<title>Group</title>
<desc>Created using Figma</desc>
<g id="Canvas" transform="translate(-627 487)">
<g id="Group">
<g id="Vector">
<use xlink:href="#path0_fill" transform="translate(726.894 -486.141)" fill="#D7D7D7"/>
</g>
<g id="Vector">
<use xlink:href="#path1_fill" transform="translate(627 -394.435)" fill="#EBEBEB"/>
</g>
<g id="Group">
<g id="Vector">
<use xlink:href="#path2_fill" transform="translate(744.031 -452.187)" fill="#454545"/>
</g>
<g id="Vector">
<use xlink:href="#path3_fill" transform="translate(764.009 -470.541)" fill="#454545"/>
</g>
</g>
<g id="Group">
<g id="Vector">
<use xlink:href="#path4_fill" transform="translate(644.053 -360.376)" fill="#636363"/>
</g>
<g id="Vector">
<use xlink:href="#path5_fill" transform="translate(664.074 -378.731)" fill="#636363"/>
</g>
</g>
<g id="Vector">
<use xlink:href="#path6_fill" transform="translate(651.953 -463.178)" fill="#FA5D7C"/>
</g>
<g id="Vector">
<use xlink:href="#path7_fill" transform="translate(734.041 -433.794)" fill="#FF708C"/>
</g>
<g id="Vector">
<use xlink:href="#path8_fill" transform="translate(671.952 -444.91)" fill="#D1D1D1"/>
</g>
<g id="Vector">
<use xlink:href="#path9_fill" transform="translate(627.872 -485.392)" fill="#636363"/>
</g>
<g id="Vector">
<use xlink:href="#path10_fill" transform="translate(734.041 -397.047)" fill="#EEEEEE"/>
</g>
<g id="Vector">
<use xlink:href="#path11_fill" transform="translate(768.983 -355.807)" fill="#C9C9C9"/>
</g>
<g id="Vector">
<use xlink:href="#path12_fill" transform="translate(810.237 -317.869)" fill="#454545"/>
</g>
</g>
</g>
<defs>
<path id="path0_fill" d="M 112.015 38.5616L 72.0574 1.81433C 69.4242 -0.604776 64.7012 -0.604776 62.068 1.81433L 27.126 33.9154L 17.1366 43.1311L 2.08983 56.8777C 0.75234 58.1065 0 59.7192 0 61.4471C 0 63.175 0.75234 64.8262 2.08983 66.0165L 42.0892 102.725C 43.4685 103.993 45.3076 104.645 47.063 104.645C 48.8603 104.645 50.6993 103.993 52.0368 102.725L 112.015 47.7389C 113.353 46.5101 114.105 44.8974 114.105 43.1695C 114.105 41.4415 113.353 39.7904 112.015 38.5616Z"/>
<path id="path1_fill" d="M 111.973 38.6672L 72.0157 1.91992C 70.6782 0.691173 68.9227 1.17183e-06 67.0419 1.17183e-06C 65.161 1.17183e-06 63.3637 0.691173 62.0681 1.91992L 57.0942 6.48934L 47.1048 15.705L 37.0736 24.8822L 27.0842 34.0594L 17.0948 43.2366L 2.08983 56.9833C 0.75234 58.212 0 59.8248 0 61.5527C 0 63.2806 0.75234 64.9318 2.08983 66.1221L 42.0892 102.869C 43.4267 104.098 45.1822 104.789 47.063 104.789C 48.9439 104.789 50.7412 104.098 52.0368 102.869L 106.958 52.3755L 111.931 47.8061C 114.732 45.2718 114.732 41.2015 111.973 38.6672Z"/>
<path id="path2_fill" d="M 29.9264 27.5317C 28.5471 28.7988 26.7081 29.4516 24.9526 29.4516C 23.1136 29.4516 21.3163 28.7988 19.9788 27.5317L 0 9.21563L 9.9894 5.85914e-07L 29.9682 18.3929C 32.685 20.8888 32.685 24.9974 29.9264 27.5317Z"/>
<path id="path3_fill" d="M 29.9264 27.5701C 28.5471 28.8372 26.7081 29.4132 24.9526 29.4132C 23.1554 29.4132 21.3163 28.7988 19.9788 27.5701L -5.10213e-06 9.17723L 9.98941 -5.85914e-07L 29.9682 18.3545C 32.7268 20.8888 32.7268 24.9974 29.9264 27.5701Z"/>
<path id="path4_fill" d="M 30.01 27.5317C 28.5889 28.7988 26.7917 29.4516 24.9526 29.4516C 23.1554 29.4516 21.3581 28.7988 19.9788 27.5317L -3.18883e-07 9.17723L 9.9894 0L 30.01 18.3545C 32.7268 20.8888 32.7268 24.959 30.01 27.5317Z"/>
<path id="path5_fill" d="M 29.9682 27.5317C 28.5471 28.7988 26.7499 29.4516 24.9944 29.4516C 23.1553 29.4516 21.3581 28.7988 20.0206 27.5317L -1.27553e-06 9.17723L 10.0312 4.68731e-06L 30.01 18.3545C 32.685 20.8504 32.685 24.9974 29.9682 27.5317Z"/>
<path id="path6_fill" d="M 52.0786 1.81433C 49.4455 -0.604776 44.7224 -0.604776 42.0892 1.81433L 2.08983 38.5616C 0.752339 39.7904 3.18883e-07 41.4031 3.18883e-07 43.1311C 3.18883e-07 44.859 0.752339 46.5101 2.08983 47.7005L 117.031 153.258L 166.978 107.372L 52.0786 1.81433Z"/>
<path id="path7_fill" d="M 2.55107e-06 91.8107L 34.942 123.873L 84.8472 78.0256L 2.55107e-06 1.17183e-06L 2.55107e-06 91.8107Z"/>
<path id="path8_fill" d="M 121.984 118.555C 120.186 118.555 118.347 117.902 116.968 116.635L 2.06893 11.078C -0.689645 8.54365 -0.689645 4.43502 2.06893 1.90072C 4.82751 -0.633573 9.29975 -0.633573 12.0583 1.90072L 126.957 107.458C 129.716 109.992 129.716 114.101 126.957 116.635C 125.62 117.941 123.823 118.555 121.984 118.555Z"/>
<path id="path9_fill" d="M 31.1437 74.5218L 6.19114 51.5979C -2.0846 43.9566 -2.0428 31.5923 6.19114 24.0278L 26.1699 5.67337C 34.4039 -1.89112 47.8624 -1.89112 56.1799 5.67337L 81.1744 28.6356L 31.1437 74.5218Z"/>
<path id="path10_fill" d="M 2.55107e-06 18.3545L 54.9208 68.81C 56.3001 70.0772 58.0974 70.7299 59.9364 70.7299C 61.7755 70.7299 63.5727 70.0772 64.952 68.81C 67.7106 66.2757 67.7106 62.1671 64.952 59.6328L 2.55107e-06 0L 2.55107e-06 18.3545Z"/>
<path id="path11_fill" d="M 69.9258 64.279C 68.0868 65.9685 65.4118 66.6597 62.7368 65.8533L 2.75857 47.4605C 1.67186 47.1533 0.752345 46.6541 5.10213e-06 45.8861L 49.947 -2.34366e-06C 50.7412 0.69117 51.3263 1.57434 51.6607 2.5343L 71.6813 57.6361C 72.4754 59.94 71.8485 62.5511 69.9258 64.279Z"/>
<path id="path12_fill" d="M 23.1971 4.68731e-06L -2.55107e-06 21.3111L 21.4835 27.9157C 24.1585 28.722 26.8752 28.0309 28.6725 26.3413C 30.5534 24.6134 31.2221 22.0023 30.3862 19.7368L 23.1971 4.68731e-06Z"/>
</defs>
</svg>
