<?xml version="1.0" encoding="utf-8"?>
<!-- Generator: Adobe Illustrator 19.0.0, SVG Export Plug-In . SVG Version: 6.00 Build 0)  -->
<svg version="1.1" id="Слой_1" xmlns="http://www.w3.org/2000/svg" xmlns:xlink="http://www.w3.org/1999/xlink" x="0px" y="0px"
	 viewBox="0 0 274 99" style="enable-background:new 0 0 274 99;" xml:space="preserve">
<g id="XMLID_13_">
	<g id="XMLID_14_">
		<g id="XMLID_22_">
			<path id="XMLID_34_" d="M48.2,53.1h-1.9v17.6h-7.1V29.3h7.1v18.4l1.7-0.8l7.2-17.6l7.3,0l-7.1,17.5L52.7,49l2.9,2.3l6.8,19.4
				h-7.2L48.2,53.1z"/>
		</g>
		<g id="XMLID_1_">
			<path id="XMLID_2_" d="M69.6,40.4h8.6c2.4,0,4.2,0.7,5.5,2c1,1.1,1.6,2.6,1.6,4.5c0,3.1-1.6,5.1-4,6l4.6,7H81l-4.1-6.2h-3.2v6.2
				h-4.1V40.4z M77.9,49.9c2,0,3.2-1.1,3.2-2.8c0-1.8-1.2-2.8-3.2-2.8h-4.1v5.6H77.9z"/>
			<path id="XMLID_5_" d="M95.9,40.2h3.8l8.1,19.7h-4.3l-1.7-4.4h-7.9l-1.7,4.4h-4.2L95.9,40.2z M100.2,51.7l-2.5-6.3l-2.5,6.3
				H100.2z"/>
			<path id="XMLID_8_" d="M111.1,40.4h14.3v3.9h-10.2v4.2h9v3.9h-9v7.6h-4.1V40.4z"/>
			<path id="XMLID_11_" d="M133.5,44.3h-5.7v-4h15.6v4h-5.7v15.6h-4.1V44.3z"/>
			<path id="XMLID_26_" d="M145.2,57.1l2.4-3c1.7,1.4,3.5,2.4,5.6,2.4c1.7,0,2.7-0.7,2.7-1.9c0-1.1-0.6-1.6-3.8-2.5
				c-3.8-1-6.2-2.1-6.2-6c0-3.5,2.7-5.9,6.6-5.9c2.7,0,5.1,0.9,7,2.5l-2.1,3.2c-1.7-1.2-3.3-1.9-4.9-1.9c-1.6,0-2.4,0.8-2.4,1.8
				c0,1.3,0.8,1.7,4.1,2.6c3.8,1,6,2.5,6,5.9c0,3.9-2.8,6-6.9,6C150.4,60.2,147.5,59.1,145.2,57.1z"/>
			<path id="XMLID_28_" d="M164.1,40.4h4.5l4.9,8.3l4.9-8.3h4.5v19.5h-4.1V47.2l-5.3,8.3h-0.1l-5.2-8.3v12.7h-4.1V40.4z"/>
			<path id="XMLID_30_" d="M187.9,40.4H202v3.8H192v4h8.9V52H192v4.1h10.2v3.8h-14.3V40.4z"/>
		</g>
		<g id="XMLID_18_">
			<path id="XMLID_19_" d="M219.7,49.2l-2.4-6.5h-0.2l0.7,6.5v21.5h-5.7l0-41.3h4.4L228,51.1l2.3,6.3h0.2l-0.7-6.3V29.3h5.7l0,41.4
				H231L219.7,49.2z"/>
		</g>
		<rect id="XMLID_17_" x="55.4" y="65.9" width="146.7" height="4.8"/>
		<rect id="XMLID_16_" x="69" y="29.3" width="146.7" height="4.8"/>
		<g id="XMLID_15_">
			<path id="XMLID_23_" d="M266.7,9.1V91H8V9.1H266.7 M274.7,1.1H0V99h274.7V1.1L274.7,1.1z"/>
		</g>
	</g>
</g>
</svg>
