<svg width="34" height="18" viewBox="0 0 34 18" version="1.1" xmlns="http://www.w3.org/2000/svg" xmlns:xlink="http://www.w3.org/1999/xlink">
<title>send</title>
<desc>Created using Figma</desc>
<g id="Canvas" transform="translate(-442 -7115)">
<g id="send">
<g id="Group">
<g id="Vector">
<use xlink:href="#path0_fill" transform="translate(446.752 7115)" fill="#FFFFFF"/>
</g>
<g id="Vector">
<use xlink:href="#path1_fill" transform="translate(442 7122.23)" fill="#FFFFFF"/>
</g>
<g id="Vector">
<use xlink:href="#path2_fill" transform="translate(443.29 7117.99)" fill="#FFFFFF"/>
</g>
<g id="Vector">
<use xlink:href="#path3_fill" transform="translate(442 7129.5)" fill="#FFFFFF"/>
</g>
</g>
</g>
</g>
<defs>
<path id="path0_fill" d="M 28.6547 17.9852C 28.6675 17.9825 28.68 17.979 28.6926 17.9756C 28.7033 17.9727 28.7141 17.9703 28.7246 17.9669C 28.7369 17.963 28.7489 17.9582 28.7609 17.9537C 28.7715 17.9497 28.7822 17.9461 28.7928 17.9415C 28.8041 17.9365 28.815 17.9308 28.826 17.9254C 28.8367 17.92 28.8476 17.9151 28.8581 17.9091C 28.8687 17.9033 28.8786 17.8966 28.8888 17.8902C 28.8993 17.8837 28.91 17.8775 28.9202 17.8703C 28.9311 17.8627 28.9412 17.8543 28.9517 17.8461C 28.9606 17.8392 28.9696 17.8327 28.9783 17.8254C 28.9942 17.8117 29.0093 17.7971 29.0241 17.7821C 29.0267 17.7795 29.0296 17.7772 29.0323 17.7744C 29.035 17.7716 29.0374 17.7684 29.04 17.7654C 29.0542 17.7502 29.0679 17.7346 29.0809 17.7182C 29.0885 17.7085 29.0951 17.6984 29.1022 17.6885C 29.1094 17.6782 29.1171 17.6683 29.1239 17.6576C 29.1312 17.6462 29.1375 17.6344 29.1442 17.6227C 29.1498 17.6128 29.1558 17.6032 29.161 17.593C 29.1671 17.5812 29.1722 17.569 29.1777 17.557C 29.1825 17.5463 29.1876 17.5357 29.192 17.5247C 29.1967 17.5129 29.2005 17.5009 29.2046 17.4889C 29.2086 17.4772 29.2129 17.4656 29.2164 17.4537C 29.2199 17.4416 29.2225 17.4292 29.2254 17.4169C 29.2283 17.4048 29.2316 17.3929 29.2339 17.3807C 29.2366 17.3662 29.2383 17.3516 29.2403 17.337C 29.2417 17.3268 29.2435 17.3166 29.2445 17.3062C 29.247 17.2807 29.2482 17.2551 29.2482 17.2294L 29.2482 0.770051C 29.2482 0.344675 28.9182 2.19334e-07 28.5109 2.19334e-07L 5.28451 2.19334e-07C 5.27802 2.19334e-07 5.27173 0.000821043 5.26524 0.00102639C 5.25118 0.00143708 5.23722 0.00205345 5.22326 0.00328553C 5.21215 0.00420959 5.20114 0.00554461 5.19013 0.00708472C 5.17754 0.00872749 5.16506 0.0106781 5.15257 0.0130396C 5.14087 0.0151958 5.12927 0.0177624 5.11777 0.0205346C 5.10607 0.0234095 5.09437 0.02649 5.08277 0.0299809C 5.07127 0.0333691 5.05996 0.0370648 5.04875 0.0409664C 5.03725 0.0450733 5.02575 0.0493862 5.01444 0.0541092C 5.00373 0.0585242 4.99321 0.0630412 4.98279 0.0679696C 4.97119 0.0734113 4.95968 0.0792643 4.94828 0.085322C 4.93855 0.0905584 4.92901 0.0958971 4.91957 0.101544C 4.90817 0.108321 4.89696 0.115508 4.88585 0.1229C 4.87671 0.129061 4.86776 0.135426 4.85891 0.141895C 4.84849 0.149595 4.83817 0.157604 4.82804 0.166023C 4.8188 0.173723 4.80976 0.18163 4.80081 0.189741C 4.79196 0.197852 4.78321 0.205963 4.77466 0.214587C 4.76493 0.224341 4.75559 0.234506 4.74634 0.244773C 4.74172 0.249907 4.73681 0.254425 4.73238 0.259661C 4.72973 0.262742 4.72766 0.26613 4.72511 0.26921C 4.71587 0.280402 4.70722 0.292106 4.69856 0.303914C 4.69227 0.312538 4.68578 0.321163 4.67988 0.329993C 4.67222 0.341492 4.66514 0.3533 4.65806 0.36521C 4.65226 0.374964 4.64626 0.384615 4.64095 0.394574C 4.63476 0.406073 4.62935 0.417881 4.62375 0.429689C 4.61864 0.440469 4.61333 0.45125 4.60871 0.462236C 4.60389 0.473838 4.59966 0.485851 4.59543 0.497659C 4.59121 0.509261 4.58688 0.52076 4.58324 0.532465C 4.57961 0.544272 4.57666 0.556285 4.57351 0.568298C 4.57036 0.580618 4.56702 0.592837 4.56437 0.60526C 4.56191 0.616862 4.56024 0.62867 4.55827 0.640375C 4.55611 0.653722 4.55395 0.66707 4.55237 0.680417C 4.5511 0.691506 4.5505 0.7028 4.54972 0.714094C 4.54874 0.728468 4.54785 0.742843 4.54765 0.75732C 4.54755 0.76153 4.54706 0.765637 4.54706 0.769846L 4.54706 5.5187C 4.54706 5.94408 4.8771 6.28875 5.28441 6.28875C 5.69172 6.28875 6.02176 5.94408 6.02176 5.5187L 6.02176 2.48008L 12.5773 8.54161C 12.5431 8.56677 12.5102 8.59459 12.4795 8.62653L 6.02166 15.3708L 6.02166 10.3103C 6.02166 9.88489 5.69162 9.54022 5.28431 9.54022C 4.877 9.54022 4.54697 9.88489 4.54697 10.3103L 4.54697 11.2512L 0.737346 11.2512C 0.330036 11.2512 1.80016e-08 11.5958 1.80016e-08 12.0212C 1.80016e-08 12.4466 0.330036 12.7913 0.737346 12.7913L 4.54697 12.7913L 4.54697 17.2299C 4.54697 17.6553 4.877 18 5.28431 18L 28.5107 18C 28.535 18 28.5593 17.9987 28.5835 17.9962C 28.5948 17.9951 28.6057 17.9928 28.6168 17.9912C 28.6296 17.9893 28.6421 17.9878 28.6547 17.9852ZM 27.7735 15.3709L 21.3155 8.62663C 21.3114 8.62232 21.3069 8.61872 21.3027 8.61461L 26.1577 4.3129C 26.4682 4.03774 26.5063 3.55189 26.2428 3.22754C 25.9795 2.9034 25.5143 2.86336 25.2036 3.13863L 16.9078 10.489L 7.22953 1.54021L 27.7735 1.54021L 27.7735 15.3709ZM 13.5224 9.71579C 13.575 9.66086 13.6177 9.59966 13.651 9.53457L 16.4088 12.0845C 16.5482 12.2133 16.7228 12.278 16.8976 12.278C 17.0673 12.278 17.2369 12.2171 17.3747 12.0951L 20.1852 9.6049C 20.2107 9.64392 20.2396 9.68119 20.2727 9.71579L 26.7306 16.4601L 7.06456 16.4601L 13.5224 9.71579Z"/>
<path id="path1_fill" d="M 0.737346 1.5401L 13.1903 1.5401C 13.5976 1.5401 13.9277 1.19543 13.9277 0.770051C 13.9277 0.344674 13.5976 -5.26402e-07 13.1903 -5.26402e-07L 0.737346 -5.26402e-07C 0.330036 -5.26402e-07 0 0.344674 0 0.770051C 0 1.19543 0.330036 1.5401 0.737346 1.5401Z"/>
<path id="path2_fill" d="M 0.737346 1.5401L 6.32889 1.5401C 6.73619 1.5401 7.06623 1.19543 7.06623 0.770051C 7.06623 0.344675 6.73619 1.25334e-07 6.32889 1.25334e-07L 0.737346 1.25334e-07C 0.330036 1.25334e-07 0 0.344675 0 0.770051C 0 1.19543 0.330036 1.5401 0.737346 1.5401Z"/>
<path id="path3_fill" d="M 6.14455 -5.64002e-07L 0.737346 -5.64002e-07C 0.330036 -5.64002e-07 0 0.344674 0 0.770051C 0 1.19543 0.330036 1.5401 0.737346 1.5401L 6.14455 1.5401C 6.55186 1.5401 6.88189 1.19543 6.88189 0.770051C 6.88189 0.344674 6.55186 -5.64002e-07 6.14455 -5.64002e-07Z"/>
</defs>
</svg>
