<svg width="32" height="18" viewBox="0 0 32 18" version="1.1" xmlns="http://www.w3.org/2000/svg" xmlns:xlink="http://www.w3.org/1999/xlink">
<title>vk</title>
<desc>Created using Figma</desc>
<g id="Canvas" transform="translate(-125 -7115)">
<g id="vk">
<g id="XMLID 1">
<g id="XMLID 807">
<use xlink:href="#path0_fill" transform="translate(125 7115)" fill="#FFFFFF"/>
</g>
</g>
</g>
</g>
<defs>
<path id="path0_fill" fill-rule="evenodd" d="M 27.5406 11.4452C 28.602 12.4753 29.7224 13.4445 30.6744 14.5785C 31.095 15.0824 31.4931 15.6024 31.7977 16.1873C 32.2293 17.0186 31.8384 17.9334 31.0885 17.9831L 26.4266 17.981C 25.2243 18.0802 24.2651 17.599 23.4586 16.7819C 22.8131 16.1284 22.2154 15.4329 21.5948 14.7574C 21.3403 14.4813 21.074 14.2215 20.7559 14.0162C 20.1195 13.6056 19.5671 13.7313 19.2034 14.391C 18.833 15.062 18.749 15.8051 18.7126 16.5529C 18.6627 17.6441 18.3308 17.9309 17.2281 17.9809C 14.8716 18.0913 12.6351 17.737 10.5574 16.5553C 8.72568 15.5136 7.30526 14.043 6.06893 12.3781C 3.66178 9.13628 1.81839 5.574 0.161611 1.91193C -0.211316 1.08686 0.0614137 0.643962 0.977277 0.628286C 2.49811 0.59892 4.01873 0.601011 5.54135 0.626197C 6.15946 0.635184 6.56866 0.987575 6.80732 1.568C 7.63014 3.579 8.63694 5.49228 9.90071 7.26574C 10.2373 7.73789 10.5804 8.21005 11.0691 8.54237C 11.6097 8.91034 12.0214 8.78838 12.2757 8.18977C 12.4371 7.81021 12.5077 7.40138 12.5441 6.99486C 12.6646 5.59626 12.6805 4.20007 12.4691 2.80639C 12.3394 1.93659 11.8465 1.37351 10.9733 1.20892C 10.5278 1.125 10.5941 0.960196 10.8098 0.707397C 11.1846 0.271401 11.537 -1.40327e-07 12.2395 -1.40327e-07L 17.5081 -1.40327e-07C 18.3376 0.162715 18.5218 0.533082 18.6353 1.36265L 18.6398 7.17973C 18.6308 7.50087 18.8012 8.45386 19.3832 8.66642C 19.8489 8.81775 20.1559 8.44738 20.4354 8.15382C 21.6968 6.82305 22.5972 5.25035 23.4015 3.62184C 23.7584 2.90577 24.0653 2.16211 24.3627 1.41908C 24.5831 0.867708 24.9289 0.596412 25.5538 0.60843L 30.6245 0.612924C 30.7748 0.612924 30.927 0.615119 31.0726 0.639886C 31.9271 0.784626 32.1612 1.14998 31.8973 1.97933C 31.4815 3.28053 30.6724 4.36488 29.8814 5.45424C 29.0357 6.61728 28.1313 7.7405 27.2928 8.91044C 26.5223 9.9788 26.5835 10.5173 27.5406 11.4452Z"/>
</defs>
</svg>
